PathFileType	3	(X/Y/Z)	D:\Jess\Healthy\Labelled\HA01\20250317\SRRun01.trc
DataRate	CameraRate	NumFrames	NumMarkers	Units	OrigDataRate	OrigDataStartFrame	OrigNumFrames
250.0	250.0	5	37	mm	250.0	37188	2501
Frame#	Time	C7			T10			CLAV			LSHO			RSHO			LASIS			RASIS			LPSIS			RPSIS			LILCR			RILCR			LGTR			LTHI			LLTHI			LLEP			LMEP			LPSH			LLSH			LDSH			LLMAL			LMMAL			LTOE			L5TH			LHEE			RGTR			RTHI			RLTHI			RLEP			RMEP			RPSH			RLSH			RDSH			RLMAL			RMMAL			RTOE			R5TH			RHEE			
		X1	Y1	Z1	X2	Y2	Z2	X3	Y3	Z3	X4	Y4	Z4	X5	Y5	Z5	X6	Y6	Z6	X7	Y7	Z7	X8	Y8	Z8	X9	Y9	Z9	X10	Y10	Z10	X11	Y11	Z11	X12	Y12	Z12	X13	Y13	Z13	X14	Y14	Z14	X15	Y15	Z15	X16	Y16	Z16	X17	Y17	Z17	X18	Y18	Z18	X19	Y19	Z19	X20	Y20	Z20	X21	Y21	Z21	X22	Y22	Z22	X23	Y23	Z23	X24	Y24	Z24	X25	Y25	Z25	X26	Y26	Z26	X27	Y27	Z27	X28	Y28	Z28	X29	Y29	Z29	X30	Y30	Z30	X31	Y31	Z31	X32	Y32	Z32	X33	Y33	Z33	X34	Y34	Z34	X35	Y35	Z35	X36	Y36	Z36	X37	Y37	Z37	

2189	148.748	1082.012588359776	1473.439531983374	-339.8173152542606	984.1005203367953	1256.51537675801	-346.3102886883229	1207.194676188984	1360.685184386556	-338.9888075151748	1153.688413988505	1437.479534607935	-188.6251165460105	1154.541196989714	1435.338440906602	-488.9769142402324	1195.437005015908	941.7225015324582	-442.4972913087292	1170.557539136888	950.4612563854708	-191.1156413218904	989.244471094089	1003.789054414535	-371.6405767402703	983.5468381334043	1005.468328150484	-321.8824452865272	1119.157431969021	1003.623003366073	-511.9112800434728	1081.819595844512	1031.074576299827	-148.0921429399829	1143.737716948058	854.4382975734878	-523.6637274937982	1276.345291205298	760.8155414249143	-422.5259125366524	1237.37223223238	626.1384795688153	-492.2721577836517	1285.013703062943	512.1760125601635	-469.9089477226544	nan	nan	nan	1254.884272899614	423.4419836821826	-418.6919452052994	1100.764679393689	456.8145923542007	-476.0615491290788	1038.023489840414	359.7238985151113	-438.3080884443213	923.0130136953213	375.9627305732641	-466.5670393227125	nan	nan	nan	908.9273453024294	225.3757148965556	-491.1752527127093	868.876005169986	265.2357191223231	-525.0448177070241	870.5151849250913	424.2630477891605	-400.5775976961328	1080.829625216825	864.9478243579031	-125.139140910719	1208.75030264064	737.3301334424189	-213.7604081839628	1122.716188049478	625.1327025246164	-156.1964483192568	1107.943681986109	464.6856918756338	-181.0714226343234	nan	nan	nan	1126.326354611497	356.6644320290324	-240.2973886033504	997.2263243899207	296.5904407443612	-208.6848787570678	999.2222128490597	188.4828181773323	-280.7753667141598	904.3361980980625	133.7453351608948	-266.6394989737764	nan	nan	nan	1023.264047805147	60.01748650930074	-268.5948038157972	981.9469629083951	45.91652743105057	-224.5673030581379	818.4894241598614	116.0120343495776	-328.5500480494194	
2190	148.752	1081.713438588406	1475.481746132297	-339.1430959796226	983.9906260219225	1258.596050116279	-344.3868085623178	1207.041941133055	1363.282594705764	-340.1365138730011	1155.185112745861	1439.875113288776	-188.9881941589402	1151.95130964702	1438.059676693101	-489.3137270224321	1194.341950551126	944.9357767635184	-444.3741870894734	1171.860395558926	951.6170027471027	-192.478380822884	988.7932444193143	1006.039808251119	-370.4500809126831	983.5508960246227	1007.595013424777	-320.5307591235342	1116.921546727601	1006.707462415865	-512.440142532737	1083.828571339289	1032.512615578302	-147.9708708124266	1141.330882364007	857.1393346889348	-524.7519401529324	1276.709545360896	766.0692809824045	-423.9299711579042	1240.735201339847	631.2190041074209	-492.7341572576228	1290.278210729565	517.442265543827	-470.0427436105174	nan	nan	nan	1261.866491087864	427.6439037077625	-418.2261517178009	1106.839587133462	456.286360674364	-476.0490023441157	1046.754227761087	357.6779594743218	-437.7361553157298	931.0845279297047	370.3209044870292	-466.0705616434461	nan	nan	nan	921.6728127519132	219.2236432988938	-489.6892857203387	880.359555604462	257.5101974594841	-523.7929706524277	877.1885903931465	417.4325715342192	-400.5857755832778	1082.114270117484	865.932536367023	-125.6293513292181	1206.2300070089	736.6432697191275	-215.0810091583197	1117.884604711176	626.254999741205	-156.9208853417547	1099.872879755842	465.6321220478757	-181.6374780211903	nan	nan	nan	1117.352595404646	357.4055257104873	-240.7852742546331	988.0704814309132	298.0419016896015	-208.8515561571496	989.1039918821147	189.914078567305	-280.6885626695616	893.9948176697303	135.8282077247914	-266.2720344069078	nan	nan	nan	1011.878203799919	59.98558589986315	-268.5840524140411	970.4325319019813	46.28009320475145	-224.5821686998134	807.9812463629983	118.9642733592259	-327.9643286311037	
2191	148.756	1081.41248401853	1477.676326518278	-338.5225205155569	983.9537537763174	1260.778807024646	-342.4667725423701	1206.881028638355	1366.101366888361	-341.3182686118911	1156.628431260543	1442.482375936692	-189.4137565851974	1149.334313236333	1440.964067275703	-489.6498429974316	1193.318604716691	948.1211431121153	-446.2689955913387	1173.253979103023	952.7789028892485	-193.8466006196626	988.4468018899751	1008.437902997151	-369.2746512011925	983.6780727618897	1009.85718016043	-319.15396397428	1114.855125786502	1009.896877340122	-512.9448657674541	1086.10511623988	1033.942231213345	-147.8530701249141	1139.037613787953	860.0763080397046	-525.8663662832375	1276.959552979642	771.4746268284199	-425.4116806553551	1243.941407726797	636.4967177149455	-493.2037125079049	1295.202293567527	522.9205848694778	-470.2313915324545	nan	nan	nan	1268.617735391406	431.9582988947929	-417.8188319657412	1112.750486273482	455.7000410521197	-476.0232498135513	1055.514233548359	355.5650608641601	-437.1610388331851	939.2668217130715	364.4343706916518	-465.5335380708477	nan	nan	nan	934.6855943870014	212.951090895093	-488.1015143746945	892.0967381015193	249.5624809249043	-522.4266562716318	883.9756424345456	410.2802041093618	-400.5474455489684	1083.522297676746	867.0529213139331	-126.1109111388863	1203.733831963496	736.1138006088232	-216.3762502561327	1112.995852255106	627.577845100733	-157.6930893672289	1091.85028827796	466.9206643000401	-182.1866550849539	nan	nan	nan	1108.368049028271	358.469484671285	-241.3104735670499	978.9743684965806	299.7727084833127	-208.9664343794158	979.0920955002413	191.5787807718264	-280.54153798089	883.8057589447897	138.0525463962453	-265.8333375527611	nan	nan	nan	1000.535604176734	59.98575415675926	-268.5459546889758	958.9583352342423	46.67148674189638	-224.578273350957	797.6343190018204	122.1445522756274	-327.3026978820918	
2192	148.76	1081.115396403085	1480.01001649864	-337.9585205075386	983.9866773485303	1263.050488695789	-340.5515987713833	1206.710906627727	1369.112010158399	-342.5282286907355	1158.026446241079	1445.276319088715	-189.8995216355592	1146.704555570166	1444.022663514489	-489.9779698375163	1192.371558695223	951.2707562657527	-448.1631662981843	1174.73113839995	953.9497087315484	-195.2125149784662	988.2057253066217	1010.971944214424	-368.1139197902947	983.9303278519719	1012.245972512365	-317.7539636762647	1112.954343771195	1013.188009101745	-513.4205209942071	1088.638248368437	1035.3707015503	-147.7488361420242	1136.881450513454	863.2538973113586	-526.9961461941881	1277.105007066461	777.0078050128826	-426.9453926720197	1246.979391743168	641.9348152872442	-493.6780570460716	1299.769503367183	528.5719597325525	-470.4714523103507	nan	nan	nan	1275.129596395831	436.3577564486393	-417.4811857617124	1118.504214641712	455.0449995543362	-475.9797404159111	1064.309814235939	353.3883499543865	-436.5850838618	947.5826517724521	358.3195847893861	-464.9533046063711	nan	nan	nan	947.9692769395659	206.5909615656861	-486.4267161851792	904.1025721861528	241.4310024704931	-520.9552944521076	890.9069267346526	402.8202885182502	-400.449792227155	1085.027052210006	868.3153433675823	-126.5787405321392	1201.270236220279	735.7578580969708	-217.6518217799748	1108.088221485452	629.0984602747538	-158.5091690983843	1083.894322956015	468.5572223918115	-182.7175094814474	nan	nan	nan	1099.391903357116	359.851540150338	-241.8506096968046	969.9411104270233	301.7954428467842	-209.0280282344375	969.2096710324768	193.4763959366843	-280.3244672446588	873.7922856816479	140.4112264616107	-265.3190204693711	nan	nan	nan	989.2458684317302	60.01533853032299	-268.4775382404208	947.5332204992777	47.08766608851832	-224.5540606936265	787.4765129827614	125.5566400708761	-326.5674036803576	
2193	148.764	1080.827383333882	1482.468391651467	-337.4521326283782	984.0862974210463	1265.398026501584	-338.6418166353743	1206.531180731452	1372.284911954628	-343.7605699130206	1159.386959440459	1448.231663308787	-190.4426709193009	1144.07494011474	1447.206851771627	-490.2911234007325	1191.504327616979	954.3863802019428	-450.0378811032332	1176.28488153769	955.1352601654191	-196.5704904454765	988.0692990068754	1013.629304497829	-366.9663115711081	984.3078105425799	1014.75185924971	-316.3328819415298	1111.213177520313	1016.580668528546	-513.8622415502323	1091.416298150544	1036.80771843504	-147.6693959391816	1134.88271998039	866.6738131374118	-528.130259789179	1277.157586589935	782.6451140155331	-428.5039957154901	1249.838266843646	647.4950966357155	-494.1544228162092	1303.96565190489	534.3535321841659	-470.7579123456275	nan	nan	nan	1281.395373051054	440.814569980527	-417.223625358271	1124.1086878733	454.3092089713076	-475.9145749123075	1073.146832665728	351.1506780075731	-436.0104835902551	956.0533294151855	351.9942540907732	-464.327493898994	nan	nan	nan	961.5265208779496	200.1757351405008	-484.6814500216412	916.3902581101796	233.1542789953927	-519.3897420485497	898.0123082743381	395.068550720838	-400.2800795691538	1086.602309993439	869.7233180903359	-127.0297137909401	1198.847966262026	735.5879572108768	-218.9147633387238	1103.200422870918	630.8125200127588	-159.363662261723	1076.018571560899	470.5422362153761	-183.2297208061742	nan	nan	nan	1090.442589909158	361.5437504500573	-242.3835015307938	960.9731888879807	304.1176568431503	-209.0369744225024	959.479539022708	195.6035841071755	-280.029158891744	863.9779724048551	142.8956564209995	-264.7265911315677	nan	nan	nan	978.0192076015297	60.07140212581655	-268.3772448592316	936.166948388336	47.52677037881516	-224.5086993336127	777.536663247301	129.2025919717493	-325.7614408476389	
